<!DOCTYPE svg PUBLIC "-//W3C//DTD SVG 20010904//EN" "http://www.w3.org/TR/2001/REC-SVG-20010904/DTD/svg10.dtd">
<svg version="1.0" xmlns="http://www.w3.org/2000/svg" width="4630px" height="4600px" viewBox="0 0 12000 11920"
     preserveAspectRatio="xMidYMid meet">
  <g id="layer101" fill="#0000ff" stroke="none">
    <path d="M863 6978 c-6 -7 -13 -26 -16 -43 -4 -27 -4 -27 -6 8 -1 27 -5 37 -17 37 -15 0 -16 -9 -10 -65 4 -36 9 -72 12 -80 11 -27 39 -12 46 25 4 19 10 49 14 67 8 39 -7 71 -23 51z"/>
    <path d="M203 6925 c0 -33 2 -45 4 -27 2 18 2 45 0 60 -2 15 -4 0 -4 -33z"/>
    <path d="M250 6936 c0 -20 5 -36 10 -36 6 0 10 13 10 29 0 17 -4 33 -10 36 -6 4 -10 -8 -10 -29z"/>
    <path d="M1992 6365 c-7 -14 -12 -36 -13 -48 0 -21 -1 -21 -9 -2 -8 18 -9 17 -9 -6 -1 -26 21 -45 39 -34 14 9 23 66 12 77 -6 6 -8 17 -5 24 9 25 -3 15 -15 -11z"/>
    <path d="M9822 5790 c-8 -30 -12 -68 -10 -85 l4 -30 13 29 c6 16 11 55 9 85 l-3 56 -13 -55z"/>
    <path d="M11630 5534 c0 -73 3 -94 17 -105 15 -13 16 -7 10 74 -9 126 -26 147 -27 31z"/>
    <path d="M6250 5591 c0 -11 -4 -23 -10 -26 -5 -3 -10 -1 -10 4 0 6 -4 11 -10 11 -11 0 -12 -180 -2 -218 11 -36 64 142 60 198 -3 43 -28 71 -28 31z"/>
    <path d="M8782 5166 c3 -4 0 -22 -7 -40 -9 -20 -11 -44 -6 -66 l8 -35 6 35 c13 72 13 101 3 107 -6 3 -8 3 -4 -1z"/>
    <path d="M8601 5126 c-1 -29 2 -37 10 -29 8 8 8 19 1 40 -10 28 -10 28 -11 -11z"/>
    <path d="M2098 5140 c-22 -53 -40 -111 -36 -116 3 -3 16 9 28 25 15 22 20 42 18 68 -2 22 -6 32 -10 23z"/>
    <path d="M760 5115 c0 -14 4 -25 9 -25 4 0 6 11 3 25 -2 14 -6 25 -8 25 -2 0 -4 -11 -4 -25z"/>
    <path d="M3386 5105 c-13 -36 -6 -60 25 -77 34 -20 59 -23 59 -8 0 6 -4 10 -9 10 -5 0 -22 21 -38 46 -24 36 -32 42 -37 29z"/>
    <path d="M5187 5067 c-4 -10 -7 -28 -7 -40 1 -20 2 -20 11 -4 6 10 9 28 7 40 -3 20 -4 20 -11 4z"/>
    <path d="M7365 5028 c10 -45 12 -48 43 -48 15 0 22 4 16 8 -6 4 -19 22 -28 40 -9 17 -21 32 -27 32 -7 0 -8 -12 -4 -32z"/>
    <path d="M5206 5023 c-11 -11 -6 -23 9 -23 8 0 15 4 15 9 0 13 -16 22 -24 14z"/>
    <path d="M6873 4645 c0 -22 2 -30 4 -17 2 12 2 30 0 40 -3 9 -5 -1 -4 -23z"/>
    <path d="M5073 4238 c2 -20 -1 -34 -5 -32 -4 3 -8 -6 -8 -20 0 -27 6 -31 28 -17 12 7 11 17 -2 57 -15 47 -15 48 -13 12z"/>
    <path d="M9284 4087 c-25 -38 -23 -69 7 -107 l19 -25 0 83 c0 45 -1 82 -2 82 -2 0 -13 -15 -24 -33z"/>
    <path d="M11586 3968 c-11 -41 -7 -78 8 -78 19 0 30 54 16 79 -14 26 -16 26 -24 -1z"/>
    <path d="M215 3810 c21 -24 41 -25 61 -6 22 22 17 26 -33 26 -45 0 -46 0 -28 -20z"/>
    <path d="M3385 3820 c3 -5 16 -10 28 -9 21 0 21 1 2 9 -28 12 -37 12 -30 0z"/>
    <path d="M8166 3805 c-3 -9 -6 -24 -6 -33 0 -13 4 -11 16 7 11 15 13 26 6 33 -6 6 -12 4 -16 -7z"/>
    <path d="M2021 3796 c3 -3 21 -16 42 -30 35 -24 37 -24 37 -5 0 12 -10 23 -26 29 -26 10 -61 14 -53 6z"/>
    <path d="M1411 3776 c2 -2 15 -9 29 -16 23 -12 24 -12 11 3 -7 10 -20 17 -29 17 -8 0 -13 -2 -11 -4z"/>
    <path d="M10410 2967 c0 -4 6 -20 14 -36 17 -32 46 -59 46 -43 0 6 -5 14 -11 18 -6 3 -19 20 -30 38 -10 17 -19 27 -19 23z"/>
    <path d="M1445 2934 c-19 -17 -26 -28 -17 -31 8 -3 12 -30 12 -83 0 -43 5 -82 10 -85 10 -6 13 23 11 109 -1 26 3 63 8 82 5 19 9 34 8 34 -1 -1 -15 -12 -32 -26z"/>
    <path d="M10906 2880 c4 -19 13 -46 21 -60 13 -24 14 -23 9 19 -2 24 -12 51 -20 60 -15 14 -16 13 -10 -19z"/>
    <path d="M11280 2895 c-6 -8 -14 -34 -16 -57 -5 -41 -4 -42 9 -18 14 24 30 90 23 90 -2 0 -9 -7 -16 -15z"/>
    <path d="M2747 2686 c-4 -9 -1 -16 5 -16 7 0 7 -4 -1 -13 -8 -10 -7 -19 4 -33 13 -18 14 -17 15 16 0 43 -14 70 -23 46z"/>
    <path d="M5835 2677 c10 -15 20 -25 23 -22 3 3 -5 16 -17 28 l-23 22 17 -28z"/>
    <path d="M7340 2669 c0 -19 6 -44 14 -55 13 -17 14 -15 9 26 -7 57 -23 77 -23 29z"/>
    <path d="M7950 2685 c0 -18 31 -75 41 -75 8 0 6 6 -4 18 -10 10 -17 26 -17 35 0 9 -4 19 -10 22 -5 3 -10 4 -10 0z"/>
    <path d="M9288 2663 c-14 -28 -14 -33 -2 -33 17 0 27 21 22 47 -3 14 -7 11 -20 -14z"/>
    <path d="M240 2660 c0 -15 7 -20 25 -20 18 0 25 5 25 20 0 15 -7 20 -25 20 -18 0 -25 -5 -25 -20z"/>
    <path d="M4552 2638 c-6 -6 -12 -19 -12 -27 0 -13 2 -13 16 1 9 9 15 21 13 27 -3 9 -8 8 -17 -1z"/>
    <path d="M6272 2581 c-8 -4 -12 -19 -10 -32 3 -22 4 -22 15 9 7 17 11 32 10 32 -1 0 -8 -4 -15 -9z"/>
    <path d="M6867 2005 c-10 -56 -9 -155 2 -155 12 0 19 76 12 140 l-6 55 -8 -40z"/>
    <path d="M806 1927 c-16 -75 22 -217 59 -217 20 0 47 55 43 88 -2 19 -14 31 -43 46 -37 19 -40 25 -45 71 l-6 50 -8 -38z"/>
    <path d="M9164 1731 c13 -45 26 -63 26 -37 0 16 -27 76 -34 76 -2 0 1 -18 8 -39z"/>
    <path d="M9132 1718 c-1 -18 3 -40 8 -48 7 -11 10 -6 10 20 0 47 -16 72 -18 28z"/>
    <path d="M7314 1713 c-8 -3 -9 -16 -2 -46 12 -56 32 -75 26 -26 -3 27 0 35 9 32 7 -3 13 -1 13 4 0 15 -34 41 -46 36z"/>
    <path d="M3237 1638 c-8 -13 -17 -45 -19 -73 l-5 -50 34 0 c27 0 34 5 43 29 8 23 7 35 -5 52 -8 13 -15 30 -15 38 0 26 -19 28 -33 4z"/>
    <path d="M11794 1645 c4 -13 2 -14 -14 -5 -17 9 -20 7 -26 -16 -5 -20 -2 -31 11 -40 10 -7 23 -11 28 -7 6 3 0 10 -12 15 -19 7 -21 11 -11 23 6 7 18 11 26 8 9 -3 14 2 14 16 0 12 -5 21 -11 21 -6 0 -9 -7 -5 -15z"/>
    <path d="M2196 1573 c-4 -9 0 -23 9 -32 13 -14 15 -13 15 11 0 32 -15 45 -24 21z"/>
    <path d="M4600 1543 c0 -6 7 -19 16 -28 9 -9 19 -13 22 -10 3 3 -4 15 -16 28 -12 12 -22 16 -22 10z"/>
    <path d="M2146 1515 c-13 -10 -16 -20 -11 -32 5 -10 7 -25 6 -33 -2 -13 0 -13 14 1 10 10 15 28 13 47 -3 28 -5 29 -22 17z"/>
    <path d="M4410 1505 c-10 -12 -9 -15 8 -15 11 0 25 7 32 15 10 12 9 15 -8 15 -11 0 -25 -7 -32 -15z"/>
    <path d="M10366 1483 c13 -53 49 -78 73 -49 9 11 5 20 -19 45 -40 40 -63 41 -54 4z"/>
    <path d="M5213 1488 c-5 -7 -15 -26 -21 -43 l-12 -30 25 30 c22 26 33 55 21 55 -2 0 -8 -6 -13 -12z"/>
    <path d="M9872 545 c-15 -49 -16 -85 -2 -85 16 0 21 23 18 76 l-3 49 -13 -40z"/>
    <path d="M8527 542 c3 -12 9 -25 14 -28 14 -8 11 10 -6 32 -13 18 -14 18 -8 -4z"/>
    <path d="M7320 523 c0 -13 27 -49 33 -43 3 3 -3 16 -14 29 -10 13 -19 19 -19 14z"/>
    <path d="M1417 513 c-12 -12 -8 -101 6 -106 10 -4 10 -6 0 -6 -15 -1 -17 -37 -3 -46 6 -4 8 -11 5 -16 -3 -5 1 -6 10 -3 9 4 14 13 11 21 -3 8 -6 48 -6 89 0 68 -6 85 -23 67z"/>
    <path d="M4330 468 c0 -8 9 -23 20 -33 16 -15 20 -15 20 -3 0 8 -9 23 -20 33 -16 15 -20 15 -20 3z"/>
    <path d="M9862 415 c0 -28 4 -35 20 -35 16 0 19 5 14 23 -3 12 -6 28 -6 35 0 6 -6 12 -14 12 -9 0 -14 -12 -14 -35z"/>
    <path d="M4962 368 c6 -24 15 -47 19 -52 13 -14 11 51 -1 75 -18 34 -28 20 -18 -23z"/>
    <path d="M6147 396 c-9 -22 1 -84 14 -92 16 -10 29 6 20 24 -5 9 -13 33 -18 52 -7 29 -10 32 -16 16z"/>
    <path d="M9862 353 c5 -25 28 -28 28 -4 0 12 -6 21 -16 21 -9 0 -14 -7 -12 -17z"/>
    <path d="M11024 330 c-43 -17 -37 -30 15 -30 37 0 51 4 51 14 0 8 -7 17 -16 20 -19 7 -23 7 -50 -4z"/>
    <path d="M180 292 c0 -14 23 -32 42 -32 11 0 18 7 18 20 0 16 -7 20 -30 20 -16 0 -30 -4 -30 -8z"/>
  </g>

</svg>