<svg id="Layer_1" enable-background="new 0 0 512 512" height="512" viewBox="0 0 512 512" width="512" xmlns="http://www.w3.org/2000/svg"><g><g><g><g><g><g><g><g><g><path d="m278.349 414.622-96.977-.572c-16.796-.122-30.524 13.369-30.662 30.132-.138 16.763 13.366 30.451 30.163 30.572l96.758.57z" fill="#ffd9b0"/><path d="m242.404 414.443-.499 60.704-61.032-.393c-16.796-.122-30.3-13.809-30.163-30.572.138-16.763 13.866-30.254 30.662-30.132z" fill="#ff70ea"/></g></g><g><path d="m277.631 475.324 1.012-85.578-1.288-147.837 22.593-2.799 31.823 188.975c2.499 12.404-1.091 25.225-9.657 34.495-7.105 7.688-16.992 12.23-27.487 12.626z" fill="#636c96"/><path d="m277.355 241.909-.095-2.235c0-10.046-13.069-12.602-18.931-13.244-12.261-1.342-21.797-11.423-21.818-23.859h37.361c11.581 0 21.535 8.2 23.737 19.552l2.339 16.987z" fill="#ffca91"/></g></g></g><ellipse cx="44.772" cy="449.969" fill="#de0909" rx="25.28" ry="25.161" transform="matrix(.969 -.248 .248 .969 -110.057 25.111)"/><path d="m159 439.255v.056c-.146 19.994-16.556 36.114-36.66 36.013l-27.743-.139c-20.121-.101-36.321-16.41-36.175-36.421v-.056c.146-19.994 16.556-36.114 36.66-36.013l27.743.139c20.122.101 36.321 16.41 36.175 36.421z" fill="#ffd9b0"/><path d="m122.826 402.834-27.743-.139c-1.091-.005-2.168.046-3.234.134l.978.005c20.121.101 36.321 16.41 36.175 36.421v.055c-.138 18.909-14.826 34.344-33.425 35.88l26.765.134c20.104.101 36.514-16.02 36.66-36.013v-.055c.144-20.012-16.055-36.321-36.176-36.422z" fill="#ffca91"/><path d="m101.322 416.793c-.312 15.676 4.588 31.012 13.932 43.602l10.941 14.742-38.237-.033c-21.164-.263-38.069-17.563-37.758-38.641.288-19.515 11.787-38.099 31.302-39.923 12.173-1.137 19.975 6.188 19.82 20.253z" fill="#f02b2b"/></g></g><g><g><g><g><path d="m281.517 203.651h-96.477c-17.665 0-31.986-14.318-31.986-31.98 0-17.662 14.321-31.98 31.986-31.98h96.477z" fill="#ffd9b0"/><path d="m242.154 203.651v-63.96h-57.114c-17.665 0-31.986 14.318-31.986 31.98 0 17.662 14.321 31.98 31.986 31.98z" fill="#aaefff"/><g><path d="m117.5 71.581 45.321 34.138c37.679 4.364 34.783-35.754 34.783-35.754-11.111 11.111-26.703 6.355-34.275-13.586-4.855-12.785-16.309-21.694-29.671-18.665-13.361 3.029-21.658 17.37-16.158 33.867z" fill="#bf7d2c"/><path d="m158.471 166.951.047-.028c16.825-10.261 22.145-32.203 11.885-49.02 0 0-46.409-45.358-63.248-35.089l-.047.028c-16.825 10.261-22.145 32.203-11.885 49.02l14.158 23.206c10.268 16.832 32.251 22.153 49.09 11.883z" fill="#ffd9b0"/><path d="m170.403 117.903s-46.409-45.358-63.248-35.089l-.047.029c-2.189 1.335-4.178 2.872-5.969 4.565 18.713 10.413 39.263 30.495 39.263 30.495 10.259 16.817 4.939 38.759-11.885 49.02l-.047.028c-1.179.719-2.385 1.354-3.609 1.921 10.452 4.825 23.043 4.523 33.609-1.921l.047-.028c16.825-10.261 22.145-32.203 11.886-49.02z" fill="#ffca91"/><path d="m110.296 129.949c13.095-8.213 28.54-11.876 43.934-10.418l17.966 1.701-19.379-32.065c-10.933-17.624-34.11-23.034-51.768-12.084-16.348 10.138-26.236 29.208-17.901 46.506 5.2 10.791 15.339 13.622 27.148 6.36z" fill="#bf7d2c"/><g><path d="m152.817 89.167c-9.958-16.052-30.072-21.966-46.923-14.621 6.768 2.936 12.742 7.882 16.923 14.621l18.35 30.361c4.323-.398 8.694-.411 13.064.002l17.966 1.701z" fill="#b06f20"/></g></g></g></g><path d="m468.278 180.571-130.18-32.025c-11.497-14.572-42.157-19.134-56.582-8.857v63.963l185.921 1.744z" fill="#aaefff"/><path d="m468.278 180.571-130.18-32.025c-11.497-14.572-42.157-19.134-56.582-8.857v63.963l185.921 1.744z" fill="#aaefff"/><path d="m490.468 180.576c7.634-.203 13.937 5.668 13.95 13.269l.082 51.158c-6.546-.125-12.77-4.383-14.845-10.691l-9.529-28.974-11.809.017-.039-24.779z" fill="#ffd9b0"/></g><path d="m187.985 311.049c10.083-.001 18.24-8.193 18.183-18.262l-.554-108.643c-.038-6.995-5.735-12.646-12.75-12.646-7.064 0-12.781 5.728-12.75 12.772l.53 105.484h-6.262c-11.78 0-21.329 9.535-21.329 21.298z" fill="#ffd9b0"/><path d="m187.985 311.049c10.083.001 18.24 8.193 18.183 18.262l-.554 108.012c-.038 6.995-5.735 12.646-12.75 12.646-7.064 0-12.781-5.728-12.75-12.772l.53-104.853h-6.262c-11.78 0-21.329-9.535-21.329-21.298z" fill="#ffca91"/></g></g></g><path d="m504.5 467.36h-176.608c9.937-10.948 14.144-26.093 11.256-40.633l-31.784-188.748c-1.211-8.792-1.341-18.696-5.798-26.641 57.677.538 115.462 2.234 173.135 1.507l7.831 23.811c3.007 9.142 11.982 15.657 21.825 15.845 3.839.078 7.649-3.744 7.644-7.511l-.082-51.158c-.02-11.583-10.034-20.981-21.539-20.757h-21.132l-42.917-10.555c-9.418-2.32-12.998 12.251-3.582 14.566l38.069 9.362v11.375l-171.8-1.604v-52.208c12.474-5.588 34.978-1.234 43.193 9.177 1.034 1.311 2.476 2.239 4.097 2.638l47.397 11.657c9.417 2.311 12.999-12.25 3.582-14.566l-45.077-11.086c-14.343-15.366-45.226-20.108-62.883-9.642h-96.403c-.63-6.37-2.686-12.568-6.119-18.194l-.676-1.109c6.685-1.2 12.387-4.026 17.032-8.474 13.362-12.796 11.989-34.087 11.924-34.988-.454-6.286-8.327-9.221-12.784-4.763-2.058 2.058-5.342 4.334-9.315 3.482-4.885-1.047-9.612-6.441-12.644-14.427-6.589-17.352-22.353-26.94-38.34-23.317-8.364 1.896-15.303 7.081-19.541 14.602-3.464 6.148-4.783 13.28-3.928 20.66-3.938 1.12-7.788 2.785-11.436 5.047-18.271 11.331-31.25 34.251-20.705 56.136 3.41 7.077 8.645 11.824 15.137 13.728.084.024.18.044.265.068l11.185 18.333c8.126 13.321 22.362 20.684 36.948 20.684 2.113 0 4.233-.17 6.343-.484 2.688 14.047 12.794 25.577 26.47 30.022l.368 73.086c-15.303.668-27.546 13.309-27.553 28.755v.007.004s0 .002 0 .004v.007c.008 15.446 12.251 28.087 27.553 28.755l-.342 67.668c-5.152 1.155-9.961 3.361-14.177 6.489-1.389-1.969-2.94-3.844-4.668-5.593-8.251-8.353-19.281-12.986-31.05-13.045l-22.008-.129c-.056-.053-.114-.112-.17-.164-5.047-4.648-11.921-6.711-19.888-5.969-17.358 1.622-29.027 13.676-34.508 28.276-.434-.019-.867-.047-1.302-.049-.056 0-.111 0-.167 0-17.984 0-32.695 14.54-32.826 32.488-.046 6.313 1.704 12.359 4.997 17.572h-9.499c-4.142 0-7.5 3.358-7.5 7.5s3.358 7.5 7.5 7.5h497c4.143 0 7.5-3.358 7.5-7.5s-3.357-7.497-7.5-7.497zm-180.082-37.793c2.017 10.008-.904 20.447-7.813 27.923-4.957 5.364-11.464 8.788-18.602 9.87h-12.777l-.314-218.829 8.833-1.094 30.63 181.895c.013.077.027.156.043.235zm-53.658-7.49-.534 45.283h-20.757l.373-45.406zm3.921-210.926c8.053 0 13.986 4.675 15.529 12.216l1.271 9.234-7.779.964c-2.898-7.873-11.628-13.176-24.557-14.591-5.78-.632-10.203-3.507-12.521-7.824h28.057zm215.788-23.076c3.097 0 6.444 2.438 6.449 5.782l.062 38.645c-.073-.175-.141-.352-.199-.533l-9.529-28.975c-1.013-3.078-3.886-5.157-7.125-5.157-.003 0-.007 0-.011 0l-4.298.006v-9.768zm-216.451 8.076h-24.363v-48.96h24.363zm-148.489-143.786c2.131-3.783 5.607-6.388 9.788-7.335 9.971-2.265 17.734 5.409 21.001 14.013 4.919 12.955 13.493 21.618 23.522 23.769 2.977.639 5.948.698 8.839.199-1.061 3.78-2.869 7.694-5.936 10.611-3.616 3.438-8.778 5.079-15.374 4.909-2.697-4.46-5.455-8.875-8.179-13.316-8.019-12.927-21.574-20.365-35.731-21.188-.506-4.277.177-8.302 2.07-11.662zm-20.527 31.092c4.947-3.068 10.441-4.527 15.869-4.527 10.059 0 19.883 5.019 25.528 14.117l11.673 19.314c-17.985-2.019-36.311 1.554-51.729 11.214-6.331 3.885-12.942 4.016-16.439-3.242-6.701-13.907 2.523-29.078 15.098-36.876zm10.782 67.705-7.263-11.904s19.146-12.261 45.002-12.261l13.383 1.267c1.463 4.771 1.628 9.863.422 14.839-1.772 7.311-6.289 13.496-12.762 17.444-13.285 8.103-30.683 3.892-38.782-9.385zm44.923 23.13c.574-.316 1.151-.622 1.716-.966 9.684-5.906 16.526-15.174 19.335-26.135h52.897v48.96h-21.478l-.061-12.047c-.142-25.995-40.617-25.864-40.5.205l.043 8.507c-6.603-3.852-11.12-10.67-11.952-18.524zm13.676 122.963h6.263c4.589-.434 7.089-2.947 7.5-7.538l-.53-105.48c-.031-6.745 10.463-6.792 10.5-.054l.554 108.646c.033 5.849-4.843 10.719-10.684 10.72l-25.2-.003c2.467-3.783 6.744-6.291 11.597-6.291zm-11.598 21.297 25.2-.002c5.844.001 10.717 4.872 10.684 10.723l-.107 20.877c-.021 4.142 3.319 7.517 7.461 7.539h.04c4.124 0 7.478-3.333 7.499-7.461l.107-20.874c.039-6.875-2.611-13.348-7.461-18.227-.026-.027-.055-.051-.081-.078.026-.026.054-.051.081-.077 4.85-4.878 7.5-11.351 7.461-18.222l-.416-81.599h17.457c2.971 12.28 13.17 21.243 26.803 22.735 5.322.582 13.631 3.698 13.631 13.55l-.205 159.641-57.667-.34.086-16.732c.021-4.142-3.319-7.517-7.461-7.539-4.163.012-7.517 3.319-7.539 7.461l-.243 47.354c-.037 6.737-10.53 6.696-10.5-.048l.53-104.853c-.411-4.591-2.911-7.104-7.5-7.538h-6.263c-4.852.002-9.129-2.506-11.597-6.29zm9.901 104.601-.071 14.009c-.117 26.037 40.357 26.228 40.5.199l.08-15.624 21.648.128-.374 45.494-53.542-.105c-7.528-.054-14.362-3.705-18.572-9.718 2.609-5.543 4.098-11.713 4.145-18.227.028-3.843-.45-7.61-1.383-11.236 2.195-2.147 4.762-3.81 7.569-4.92zm-29.437-4.232c5.377 5.444 8.308 12.646 8.251 20.335-.098 13.401-9.474 24.637-22.02 27.724l-8.204-11.054c-8.311-11.197-12.734-25.042-12.456-38.983 0-.022.001-.044.001-.066.027-2.426-.152-4.621-.472-6.626l14.439.084c7.763.038 15.029 3.087 20.461 8.586zm-61.05-14.913c8.054-.753 11.7 5.038 11.624 12.672-.358 18.37 6.091 36.209 17.26 50.68h-26.529c-6.921-.86-13.29-4.002-18.209-9.057-5.697-5.854-8.768-13.57-8.647-21.729.224-15.067 8.711-31.091 24.501-32.566zm-50.127 58.361c-3.305-3.346-5.106-7.775-5.072-12.472.066-9.074 7.031-16.533 15.901-17.489-1.017 11.902 2.359 23.916 9.934 33.242-6.808 3.462-15.404 2.144-20.763-3.281z"/></g></svg>