<svg id="Capa_1" enable-background="new 0 0 512 512" height="512" viewBox="0 0 512 512" width="512" xmlns="http://www.w3.org/2000/svg"><g><g><path d="m114.577 161.045h282.846v313.15h-282.846z" fill="#818181"/></g><g><path d="m375.199 161.045h22.224v313.15h-22.224z" fill="#595959"/></g><g><path d="m84.272 474.195h343.455v30.305h-343.455z" fill="#f1d59d"/></g><g><path d="m401.463 474.195h26.264v30.305h-26.264z" fill="#ecc373"/></g><g><path d="m108.516 7.5h294.967v113.138h-294.967z" fill="#818181"/></g><g><path d="m381.26 7.5h22.224v113.138h-22.224z" fill="#595959"/></g><g><path d="m108.516 120.638 6.061 40.407h282.846l6.061-40.407z" fill="#595959"/></g><g><path d="m381.26 120.638-6.061 40.407h22.224l6.061-40.407z" fill="#454545"/></g><g><g><ellipse cx="256" cy="240.848" fill="#9dc6fb" rx="20.203" ry="15.152"/></g></g><g><g><ellipse cx="256" cy="428.738" fill="#dd636e" rx="20.203" ry="15.152"/></g></g><g><g><ellipse cx="273.858" cy="335.478" fill="#f6e266" rx="20.203" ry="15.152" transform="matrix(.707 -.707 .707 .707 -157.008 291.906)"/></g></g><g><g><ellipse cx="156.68" cy="55.663" fill="#f6e266" rx="20.203" ry="15.152" transform="matrix(.707 -.707 .707 .707 6.531 127.093)"/></g></g><g><g><circle cx="160.035" cy="206.502" fill="#dd636e" r="15.152"/></g></g><g><g><circle cx="351.965" cy="369.138" fill="#9dc6fb" r="15.152"/></g></g><g><g><circle cx="256" cy="75.181" fill="#9dc6fb" r="15.152"/></g></g><g><g><circle cx="351.965" cy="271.152" fill="#dd636e" r="15.152"/></g></g><g><g><circle cx="189.329" cy="382.27" fill="#9dc6fb" r="15.152"/></g></g><g><g><ellipse cx="346.915" cy="206.502" fill="#c8ea73" rx="20.203" ry="15.152"/></g></g><g><g><ellipse cx="352.976" cy="52.957" fill="#c8ea73" rx="20.203" ry="15.152"/></g></g><g><g><ellipse cx="187.995" cy="298.102" fill="#c8ea73" rx="15.152" ry="20.203" transform="matrix(.707 -.707 .707 .707 -155.728 220.244)"/></g></g><g><path d="m427.728 466.695h-22.805v-206.802c0-4.143-3.357-7.5-7.5-7.5s-7.5 3.357-7.5 7.5v206.803h-267.846v-88.624c0-4.143-3.357-7.5-7.5-7.5s-7.5 3.357-7.5 7.5v88.624h-22.805c-4.143 0-7.5 3.357-7.5 7.5v30.304c0 4.143 3.357 7.5 7.5 7.5h343.455c4.143 0 7.5-3.357 7.5-7.5v-30.305c.001-4.142-3.357-7.5-7.499-7.5zm-7.5 30.305h-328.456v-15.305h328.455v15.305z"/><path d="m101.045 121.194c.005.098.013.11.055.557l5.978 39.853v181.462c0 4.143 3.357 7.5 7.5 7.5s7.5-3.357 7.5-7.5v-174.521h267.845l-.007 56.343c-.001 4.143 3.357 7.5 7.499 7.501h.001c4.142 0 7.499-3.357 7.5-7.499l.008-63.285 5.978-39.853c.024-.246.056-.439.083-1.112v-113.14c0-4.143-3.357-7.5-7.5-7.5h-52.76c-4.143 0-7.5 3.357-7.5 7.5s3.357 7.5 7.5 7.5h45.26v98.139h-279.968v-98.139h199.697c4.143 0 7.5-3.357 7.5-7.5s-3.357-7.5-7.5-7.5h-207.197c-4.143 0-7.5 3.357-7.5 7.5v113.139c.009.232.004.111.028.555zm19.991 32.351-3.811-25.406h277.549l-3.811 25.406z"/><path d="m228.297 240.848c0 12.702 12.169 22.652 27.703 22.652s27.703-9.95 27.703-22.652-12.169-22.653-27.703-22.653-27.703 9.951-27.703 22.653zm27.703-7.653c7.271 0 12.703 4.04 12.703 7.652s-5.432 7.653-12.703 7.653-12.703-4.04-12.703-7.652 5.432-7.653 12.703-7.653z"/><path d="m256 451.391c15.534 0 27.703-9.95 27.703-22.652 0-12.703-12.169-22.653-27.703-22.653s-27.703 9.95-27.703 22.653c0 12.701 12.169 22.652 27.703 22.652zm0-30.306c7.271 0 12.703 4.041 12.703 7.653s-5.433 7.652-12.703 7.652-12.703-4.04-12.703-7.652 5.432-7.653 12.703-7.653z"/><path d="m293.448 315.889c-.001 0-.001 0 0 0-8.981-8.98-24.622-7.412-35.608 3.571-10.984 10.985-12.553 26.625-3.571 35.607 3.916 3.915 9.095 5.825 14.604 5.825 7.129 0 14.809-3.2 21.005-9.396 10.983-10.985 12.552-26.625 3.57-35.607zm-9.337 16.003c-.439 3.081-2.204 6.36-4.842 8.997-2.637 2.638-5.917 4.403-8.997 4.843-1.349.193-3.844.283-5.396-1.271-1.555-1.554-1.464-4.048-1.271-5.396.439-3.081 2.204-6.36 4.841-8.997 3.342-3.341 7.34-4.926 10.432-4.926 1.666 0 3.069.46 3.964 1.354 1.554 1.554 1.463 4.048 1.269 5.396z"/><path d="m140.661 39.646c-10.983 10.984-12.552 26.624-3.57 35.607 3.915 3.915 9.094 5.824 14.603 5.824 7.128 0 14.808-3.2 21.004-9.396 10.983-10.984 12.553-26.625 3.572-35.607l-.001-.001c-8.983-8.982-24.624-7.41-35.608 3.573zm21.429 21.428c-5.142 5.144-11.838 6.124-14.393 3.572-2.555-2.555-1.57-9.253 3.571-14.395 3.341-3.341 7.339-4.927 10.431-4.927 1.666 0 3.068.461 3.963 1.355 2.554 2.556 1.569 9.255-3.572 14.395z"/><path d="m160.034 183.85c-12.49 0-22.652 10.162-22.652 22.652s10.162 22.652 22.652 22.652 22.652-10.162 22.652-22.652-10.162-22.652-22.652-22.652zm0 30.304c-4.22 0-7.652-3.433-7.652-7.652s3.433-7.652 7.652-7.652 7.652 3.433 7.652 7.652-3.432 7.652-7.652 7.652z"/><path d="m351.966 346.485c-12.49 0-22.652 10.162-22.652 22.653 0 12.49 10.162 22.652 22.652 22.652s22.652-10.162 22.652-22.652c0-12.491-10.162-22.653-22.652-22.653zm0 30.306c-4.22 0-7.652-3.433-7.652-7.652s3.433-7.653 7.652-7.653 7.652 3.434 7.652 7.653-3.432 7.652-7.652 7.652z"/><path d="m233.348 75.181c0 12.49 10.162 22.652 22.652 22.652s22.652-10.162 22.652-22.652-10.162-22.653-22.652-22.653-22.652 10.162-22.652 22.653zm30.304 0c0 4.22-3.433 7.652-7.652 7.652s-7.652-3.433-7.652-7.652 3.433-7.652 7.652-7.652 7.652 3.432 7.652 7.652z"/><path d="m351.966 248.5c-12.49 0-22.652 10.162-22.652 22.652s10.162 22.652 22.652 22.652 22.652-10.162 22.652-22.652-10.162-22.652-22.652-22.652zm0 30.305c-4.22 0-7.652-3.433-7.652-7.652s3.433-7.652 7.652-7.652 7.652 3.433 7.652 7.652-3.432 7.652-7.652 7.652z"/><path d="m189.329 359.618c-12.49 0-22.652 10.162-22.652 22.652s10.162 22.652 22.652 22.652 22.652-10.162 22.652-22.652-10.162-22.652-22.652-22.652zm0 30.305c-4.22 0-7.652-3.433-7.652-7.652s3.433-7.652 7.652-7.652 7.652 3.433 7.652 7.652-3.432 7.652-7.652 7.652z"/><path d="m346.915 183.85c-15.535 0-27.704 9.95-27.704 22.652s12.169 22.652 27.704 22.652c15.534 0 27.703-9.95 27.703-22.652s-12.169-22.652-27.703-22.652zm0 30.304c-7.271 0-12.704-4.04-12.704-7.652s5.433-7.652 12.704-7.652 12.703 4.04 12.703 7.652-5.432 7.652-12.703 7.652z"/><path d="m352.976 75.609c15.534 0 27.703-9.95 27.703-22.652s-12.169-22.652-27.703-22.652-27.703 9.95-27.703 22.652 12.168 22.652 27.703 22.652zm0-30.304c7.271 0 12.703 4.04 12.703 7.652s-5.433 7.652-12.703 7.652-12.703-4.04-12.703-7.652 5.432-7.652 12.703-7.652z"/><path d="m213.097 299.566c-.902-6.317-4.129-12.526-9.084-17.482-10.985-10.982-26.625-12.553-35.606-3.571-4.506 4.506-6.516 11.111-5.514 18.125.902 6.317 4.129 12.526 9.084 17.482 4.956 4.955 11.165 8.182 17.482 9.084 1.185.17 2.355.253 3.509.253 5.674 0 10.871-2.021 14.615-5.766l.001-.001c4.506-4.504 6.515-11.111 5.513-18.124zm-16.119 7.518c-1.556 1.555-4.051 1.463-5.396 1.271-3.081-.44-6.36-2.205-8.997-4.843-2.638-2.637-4.402-5.916-4.843-8.997-.192-1.348-.283-3.842 1.271-5.396 1.098-1.099 2.665-1.375 3.966-1.375.54 0 1.034.048 1.43.104 3.081.439 6.36 2.204 8.997 4.842 2.638 2.637 4.402 5.916 4.843 8.997.191 1.349.282 3.843-1.271 5.397z"/><path d="m144.882 451.391h12.122c4.143 0 7.5-3.357 7.5-7.5s-3.357-7.5-7.5-7.5h-12.122c-4.143 0-7.5 3.357-7.5 7.5s3.357 7.5 7.5 7.5z"/><path d="m352.976 436.391c-4.143 0-7.5 3.357-7.5 7.5s3.357 7.5 7.5 7.5h14.143c4.143 0 7.5-3.357 7.5-7.5s-3.357-7.5-7.5-7.5z"/><path d="m261.051 198.85c4.143 0 7.5-3.357 7.5-7.5s-3.357-7.5-7.5-7.5h-10.102c-4.143 0-7.5 3.357-7.5 7.5s3.357 7.5 7.5 7.5z"/><path d="m309.539 419.065h10.102c4.143 0 7.5-3.357 7.5-7.5s-3.357-7.5-7.5-7.5h-10.102c-4.143 0-7.5 3.357-7.5 7.5s3.357 7.5 7.5 7.5z"/><path d="m254.408 293.376c0-4.143-3.357-7.5-7.5-7.5h-10.102c-4.143 0-7.5 3.357-7.5 7.5s3.357 7.5 7.5 7.5h10.102c4.143 0 7.5-3.357 7.5-7.5z"/><path d="m251.959 391.791h14.143c4.143 0 7.5-3.357 7.5-7.5s-3.357-7.5-7.5-7.5h-14.143c-4.143 0-7.5 3.357-7.5 7.5s3.357 7.5 7.5 7.5z"/><path d="m367.118 312.141h-12.122c-4.143 0-7.5 3.357-7.5 7.5s3.357 7.5 7.5 7.5h12.122c4.143 0 7.5-3.357 7.5-7.5s-3.357-7.5-7.5-7.5z"/><path d="m310.978 281.254c0-4.143-3.357-7.5-7.5-7.5h-14.143c-4.143 0-7.5 3.357-7.5 7.5s3.357 7.5 7.5 7.5h14.143c4.142 0 7.5-3.358 7.5-7.5z"/><path d="m306.937 37.805c0-4.143-3.357-7.5-7.5-7.5h-12.121c-4.143 0-7.5 3.357-7.5 7.5s3.357 7.5 7.5 7.5h12.121c4.142 0 7.5-3.358 7.5-7.5z"/><path d="m232.185 37.805c0-4.143-3.357-7.5-7.5-7.5h-12.121c-4.143 0-7.5 3.357-7.5 7.5s3.357 7.5 7.5 7.5h12.121c4.142 0 7.5-3.358 7.5-7.5z"/><path d="m171.728 247.919c0 4.143 3.357 7.5 7.5 7.5h14.143c4.143 0 7.5-3.357 7.5-7.5s-3.357-7.5-7.5-7.5h-14.143c-4.143 0-7.5 3.357-7.5 7.5z"/><path d="m195.391 82.833c-4.143 0-7.5 3.357-7.5 7.5s3.357 7.5 7.5 7.5h14.142c4.143 0 7.5-3.357 7.5-7.5s-3.357-7.5-7.5-7.5z"/><path d="m302.468 97.833h14.142c4.143 0 7.5-3.357 7.5-7.5s-3.357-7.5-7.5-7.5h-14.142c-4.143 0-7.5 3.357-7.5 7.5s3.357 7.5 7.5 7.5z"/></g></g></svg>