<svg id="Layer_1" enable-background="new 0 0 512 512" height="512" viewBox="0 0 512 512" width="512" xmlns="http://www.w3.org/2000/svg"><g><path d="m37.53 504.5h-.06c-16.552 0-29.97-13.418-29.97-29.97v-12.03h60v12.03c0 16.552-13.418 29.97-29.97 29.97z" fill="#ffd54f"/><path d="m37.5 462.5v12c0 11.102-6.036 20.789-15 25.976 4.414 2.554 9.534 4.023 15 4.023 16.569 0 30-13.431 30-30v-12h-30z" fill="#ffc328"/><path d="m67.5 462.5h-60v-163.858c0-4.772 3.869-8.641 8.641-8.641h42.718c4.772 0 8.641 3.869 8.641 8.641z" fill="#f74f68"/><path d="m58.859 290.001h-30c4.772 0 8.641 3.869 8.641 8.641v163.858h30v-163.858c0-4.772-3.869-8.641-8.641-8.641z" fill="#e83a53"/><path d="m55.39 290.001h-36v-24.901c0-2.816 2.283-5.099 5.099-5.099h25.802c2.816 0 5.099 2.283 5.099 5.099z" fill="#546e7a"/><path d="m474.53 504.5h-.06c-16.552 0-29.97-13.418-29.97-29.97v-12.03h60v12.03c0 16.552-13.418 29.97-29.97 29.97z" fill="#ffd54f"/><path d="m474.5 462.5v12c0 11.102-6.036 20.789-15 25.976 4.414 2.554 9.534 4.023 15 4.023 16.569 0 30-13.431 30-30v-12h-30z" fill="#ffc328"/><path d="m504.5 462.5h-60v-163.858c0-4.772 3.869-8.641 8.641-8.641h42.718c4.772 0 8.641 3.869 8.641 8.641z" fill="#f74f68"/><path d="m495.859 290.001h-30c4.772 0 8.641 3.869 8.641 8.641v163.858h30v-163.858c0-4.772-3.869-8.641-8.641-8.641z" fill="#e83a53"/><path d="m492.39 290.001h-36v-24.901c0-2.816 2.283-5.099 5.099-5.099h25.802c2.816 0 5.099 2.283 5.099 5.099z" fill="#546e7a"/><path d="m504.5 423.47c4.142 0 7.5-3.358 7.5-7.499v-117.307c0-7.505-5.157-13.812-12.109-15.609v-17.929c0-6.947-5.652-12.598-12.599-12.598h-5.605c-1.331-65.191-10.195-144.762-59.968-199.495-39.628-43.403-99.337-61.701-160.006-49.157-12.956-2.873-26.562-3.908-40.492-3.037-.21.013-.419.035-.628.066-53.669 7.932-103.346 41.628-139.879 94.88-32.017 46.67-50.576 103.368-51.515 156.742h-4.709c-6.947 0-12.599 5.651-12.599 12.598v17.986c-6.842 1.872-11.891 8.126-11.891 15.553v20.294c0 4.142 3.358 7.499 7.5 7.499s7.5-3.358 7.5-7.499v-20.294c0-.629.512-1.141 1.141-1.141h42.718c.629 0 1.141.512 1.141 1.141v156.342h-45v-103.958c0-4.142-3.358-7.499-7.5-7.499s-7.5 3.357-7.5 7.499v123.486c0 20.659 16.809 37.466 37.47 37.466h.061c20.66 0 37.469-16.807 37.469-37.466v-175.87c0-7.505-5.157-13.812-12.109-15.609v-17.929c0-6.947-5.652-12.598-12.599-12.598h-6.092c.937-50.414 18.543-104.032 48.884-148.258 34.073-49.667 80.017-81.079 129.39-88.481.716-.043 1.427-.06 2.142-.092-25.498 11.209-48.144 28.036-65.718 49.152-35.671 41.935-74.604 125.302-27.223 170.488 23.776 22.67 56.456 35.054 92.32 35.054 1.054 0 2.115-.011 3.175-.032 35.813-.726 70.06-14.119 93.958-36.743l.076-.073c14.663-14.279 25.818-30.669 33.157-48.714 1.561-3.837-.285-8.212-4.122-9.772-3.837-1.558-8.212.286-9.773 4.122-6.548 16.101-16.536 30.763-29.688 43.581-21.22 20.071-51.8 31.953-83.912 32.605-33.126.649-63.25-10.296-84.839-30.881-21.514-20.517-19.003-50.993-13.108-72.948 6.952-25.889 22.43-54.663 41.456-77.032 22.942-27.566 55.28-47.14 91.206-55.264 28.103 7.06 52.266 24.32 68.173 48.76 15.779 24.243 22.337 53.392 18.465 82.079-.554 4.105 2.325 7.881 6.43 8.435 4.105.556 7.882-2.324 8.436-6.429 4.353-32.245-3.02-65.013-20.759-92.266-12.495-19.198-29.504-34.477-49.385-44.696 45.278-1.689 87.826 15.302 117.691 48.011 21.45 23.588 36.264 53.516 45.291 91.494 8.239 34.665 10.219 71.218 10.764 97.9h-5.196c-6.947 0-12.599 5.651-12.599 12.598v17.986c-6.841 1.872-11.891 8.126-11.891 15.553v175.87c-.001 20.658 16.808 37.465 37.469 37.465h.061c20.661 0 37.47-16.807 37.47-37.466v-26.381c0-4.142-3.358-7.499-7.5-7.499s-7.5 3.358-7.5 7.499v6.852h-45v-156.341c0-.629.512-1.141 1.141-1.141h42.718c.629 0 1.141.512 1.141 1.141v117.307c-.001 4.141 3.357 7.499 7.499 7.499zm-444.5 51.064c0 12.388-10.08 22.467-22.47 22.467h-.06c-12.39 0-22.47-10.079-22.47-22.467v-4.53h45zm-12.109-192.01h-21v-14.998h21zm449.109 187.48v4.53c0 12.388-10.08 22.467-22.47 22.467h-.061c-12.39 0-22.47-10.079-22.47-22.467v-4.53zm-33.109-187.48v-14.998h21v14.998z"/></g></svg>